<svg width="21" height="21" viewBox="0 0 22 21" fill="none" xmlns="http://www.w3.org/2000/svg">
<path d="M6.92242 3.77783H14.478C15.8399 3.77783 16.7673 3.77972 17.4615 3.87228C18.1283 3.96294 18.4371 4.12067 18.6467 4.33128C18.8574 4.54094 19.0151 4.85072 19.1048 5.51655C19.1983 6.21072 19.2002 7.13817 19.2002 8.50005V12.2778C19.2002 13.6407 19.1983 14.5672 19.1058 15.2613C19.0151 15.9281 18.8574 16.2369 18.6467 16.4466C18.4371 16.6572 18.1273 16.8149 17.4615 16.9047C16.7673 16.9982 15.8408 17.0001 14.478 17.0001H6.92242C5.56053 17.0001 4.63308 16.9982 3.93892 16.9056C3.27214 16.8149 2.96331 16.6572 2.75364 16.4466C2.54303 16.2369 2.38531 15.9272 2.29558 15.2613C2.20208 14.5672 2.2002 13.6407 2.2002 12.2778V8.50005C2.2002 7.13817 2.20208 6.21072 2.29464 5.51655C2.38531 4.84978 2.54303 4.54094 2.75364 4.33128C2.96331 4.12067 3.27308 3.96294 3.93892 3.87322C4.63308 3.77972 5.56053 3.77783 6.92242 3.77783Z" stroke="var(--text-body)" stroke-width="1.5"/>
<path d="M3.14453 4.72217L8.43342 8.68883C9.5252 9.50767 10.0701 9.91661 10.7001 9.91661C11.33 9.91661 11.875 9.50767 12.9668 8.68883L18.2556 4.72217" stroke="var(--text-body)" stroke-width="1.5"/>
</svg>
