<svg width="21" height="21" viewBox="0 0 24 24" fill="none" xmlns="http://www.w3.org/2000/svg">
<path d="M10.8786 13.0383C9.78376 11.9349 8.99428 10.5662 8.58746 9.066C8.18064 7.56584 8.17041 5.98575 8.55781 4.48046C7.56551 4.89168 6.66091 5.48859 5.89256 6.23916C4.32975 7.80196 3.45178 9.92158 3.45179 12.1317C3.45178 14.3418 4.32975 16.4615 5.89256 18.0243C7.45536 19.5871 9.57497 20.465 11.7851 20.465C13.9953 20.4651 16.1149 19.5871 17.6777 18.0243C18.4409 17.2502 19.0473 16.3359 19.4636 15.3318C17.9566 15.7277 16.3726 15.7244 14.8672 15.3222C13.362 14.92 11.9873 14.1329 10.8786 13.0383Z" stroke="var(--text-body)" stroke-width="1.37649" stroke-linecap="round" stroke-linejoin="round"/>
</svg>
