<svg width="22" height="21" viewBox="0 0 22 21" fill="none" xmlns="http://www.w3.org/2000/svg">
<path fill-rule="evenodd" clip-rule="evenodd" d="M3 8.94287V13.8949C3.00484 14.9508 3.42902 15.9615 4.1792 16.7046C4.92939 17.4477 5.94409 17.8623 7 17.8572H15C16.0559 17.8623 17.0706 17.4477 17.8208 16.7046C18.571 15.9615 18.9952 14.9508 19 13.8949V8.94287C18.9952 7.88695 18.571 6.87622 17.8208 6.13311C17.0706 5.39001 16.0559 4.97542 15 4.98058C14.4454 4.90702 13.9716 4.54457 13.7554 4.02858C13.4011 3.39183 12.7287 2.99788 12 3.00001H10C9.27128 2.99788 8.59895 3.39183 8.24457 4.02858C8.02842 4.54457 7.55458 4.90702 7 4.98058C5.94409 4.97542 4.92939 5.39001 4.1792 6.13311C3.42902 6.87622 3.00484 7.88695 3 8.94287Z" stroke="var(--text-body)" stroke-width="1.5" stroke-linecap="round" stroke-linejoin="round"/>
<path fill-rule="evenodd" clip-rule="evenodd" d="M10.9994 13.8948C9.63473 13.8816 8.53792 12.7668 8.54693 11.402C8.55594 10.0372 9.66736 8.937 11.0321 8.94179C12.3969 8.94657 13.5006 10.0546 13.5 11.4194C13.4967 12.0792 13.2314 12.7107 12.7624 13.175C12.2935 13.6392 11.6593 13.8981 10.9994 13.8948Z" stroke="var(--text-body)" stroke-width="1.5" stroke-linecap="round" stroke-linejoin="round"/>
</svg>
