<svg width="22" height="22" viewBox="1 1 22 22" fill="none" xmlns="http://www.w3.org/2000/svg">
<path d="M11.8485 6.7818L5.23178 14.7219C5.08202 14.9016 5 15.1281 5 15.362V18.7534C5 19.3931 5.59242 19.8684 6.21693 19.7296L9.16705 19.074C9.38291 19.026 9.57679 18.9079 9.71835 18.738L16.5 10.6M11.8485 6.7818L13.6781 4.58626C14.4013 3.7185 15.699 3.62136 16.5433 4.37181L18.0521 5.713C18.8591 6.43034 18.9511 7.65872 18.2598 8.48819L16.5 10.6M11.8485 6.7818C11.8485 6.7818 12 8.2303 13.5 9.36515C15 10.5 16.5 10.6 16.5 10.6" stroke="var(--text-body)" stroke-width="1.5" stroke-linecap="round" stroke-linejoin="round"/>
</svg>
